<svg width="255" height="255" viewBox="0 0 255 255" fill="none" xmlns="http://www.w3.org/2000/svg">
<path d="M118.207 11.9209C121.549 3.51246 133.451 3.51246 136.793 11.9209L148.082 40.3271C152.245 50.8015 164.237 55.7685 174.587 51.3057L202.655 39.2021C210.835 35.6753 219.118 43.7754 215.957 51.9551L215.798 52.3447L203.694 80.4131C199.231 90.7632 204.199 102.755 214.673 106.918L243.079 118.207C251.488 121.549 251.487 133.451 243.078 136.793L214.673 148.082C204.199 152.245 199.231 164.237 203.694 174.587L215.798 202.655C219.381 210.964 210.964 219.381 202.655 215.798L174.587 203.694C164.237 199.231 152.245 204.199 148.082 214.673L136.793 243.079C133.451 251.488 121.549 251.487 118.207 243.078L106.918 214.673C102.755 204.199 90.7632 199.231 80.4131 203.694L52.3447 215.798C44.0356 219.381 35.6193 210.964 39.2021 202.655L51.3057 174.587C55.7685 164.237 50.8015 152.245 40.3271 148.082L11.9209 136.793C3.51246 133.451 3.51246 121.549 11.9209 118.207H11.9219L40.3271 106.918C50.8015 102.755 55.7685 90.7632 51.3057 80.4131L39.2021 52.3447C35.6193 44.0356 44.0356 35.6193 52.3447 39.2021L80.4131 51.3057C90.7632 55.7686 102.755 50.8015 106.918 40.3271L118.207 11.9209Z" fill="white" stroke="black" stroke-width="10"/>
</svg>
