<svg width="280" height="184" viewBox="0 0 280 184" fill="none" xmlns="http://www.w3.org/2000/svg">
<rect x="5" y="5" width="270" height="174" rx="87" fill="white" stroke="black" stroke-width="10"/>
<path d="M101.091 80.0909V84.6364H83V80.0909H101.091ZM88.2727 71.7273H93.6364V105C93.6364 106.515 93.8561 107.652 94.2955 108.409C94.75 109.152 95.3258 109.652 96.0227 109.909C96.7348 110.152 97.4848 110.273 98.2727 110.273C98.8636 110.273 99.3485 110.242 99.7273 110.182C100.106 110.106 100.409 110.045 100.636 110L101.727 114.818C101.364 114.955 100.856 115.091 100.205 115.227C99.553 115.379 98.7273 115.455 97.7273 115.455C96.2121 115.455 94.7273 115.129 93.2727 114.477C91.8333 113.826 90.6364 112.833 89.6818 111.5C88.7424 110.167 88.2727 108.485 88.2727 106.455V71.7273ZM123.42 115.727C120.057 115.727 117.155 114.985 114.716 113.5C112.292 112 110.42 109.909 109.102 107.227C107.799 104.53 107.148 101.394 107.148 97.8182C107.148 94.2424 107.799 91.0909 109.102 88.3636C110.42 85.6212 112.254 83.4848 114.602 81.9545C116.966 80.4091 119.723 79.6364 122.875 79.6364C124.693 79.6364 126.489 79.9394 128.261 80.5455C130.034 81.1515 131.648 82.1364 133.102 83.5C134.557 84.8485 135.716 86.6364 136.58 88.8636C137.443 91.0909 137.875 93.8333 137.875 97.0909V99.3636H110.966V94.7273H132.42C132.42 92.7576 132.027 91 131.239 89.4545C130.466 87.9091 129.36 86.6894 127.92 85.7955C126.496 84.9015 124.814 84.4545 122.875 84.4545C120.739 84.4545 118.89 84.9848 117.33 86.0455C115.784 87.0909 114.595 88.4545 113.761 90.1364C112.928 91.8182 112.511 93.6212 112.511 95.5455V98.6364C112.511 101.273 112.966 103.508 113.875 105.341C114.799 107.159 116.08 108.545 117.716 109.5C119.352 110.439 121.254 110.909 123.42 110.909C124.83 110.909 126.102 110.712 127.239 110.318C128.39 109.909 129.383 109.303 130.216 108.5C131.049 107.682 131.693 106.667 132.148 105.455L137.33 106.909C136.784 108.667 135.867 110.212 134.58 111.545C133.292 112.864 131.701 113.894 129.807 114.636C127.913 115.364 125.784 115.727 123.42 115.727ZM149.097 80.0909L157.46 94.3636L165.824 80.0909H172.006L160.733 97.5455L172.006 115H165.824L157.46 101.455L149.097 115H142.915L154.006 97.5455L142.915 80.0909H149.097ZM194.841 80.0909V84.6364H176.75V80.0909H194.841ZM182.023 71.7273H187.386V105C187.386 106.515 187.606 107.652 188.045 108.409C188.5 109.152 189.076 109.652 189.773 109.909C190.485 110.152 191.235 110.273 192.023 110.273C192.614 110.273 193.098 110.242 193.477 110.182C193.856 110.106 194.159 110.045 194.386 110L195.477 114.818C195.114 114.955 194.606 115.091 193.955 115.227C193.303 115.379 192.477 115.455 191.477 115.455C189.962 115.455 188.477 115.129 187.023 114.477C185.583 113.826 184.386 112.833 183.432 111.5C182.492 110.167 182.023 108.485 182.023 106.455V71.7273Z" fill="black"/>
</svg>
