<svg width="280" height="280" viewBox="0 0 280 280" fill="none" xmlns="http://www.w3.org/2000/svg">
<mask id="path-1-inside-1_14144_22451" fill="white">
<path d="M280 140C280 167.689 271.789 194.757 256.406 217.78C241.022 240.803 219.157 258.747 193.576 269.343C167.994 279.939 139.845 282.712 112.687 277.31C85.53 271.908 60.5844 258.574 41.0051 238.995C21.4257 219.416 8.09199 194.47 2.69006 167.313C-2.71187 140.155 0.060597 112.006 10.6569 86.4243C21.2531 60.8427 39.1973 38.9776 62.2202 23.5943C85.243 8.21086 112.311 -3.30193e-07 140 0V64.0342C124.975 64.0342 110.288 68.4896 97.7957 76.8368C85.3032 85.184 75.5665 97.0482 69.8168 110.929C64.0671 124.81 62.5628 140.084 65.4939 154.82C68.4251 169.556 75.6601 183.092 86.2841 193.716C96.9081 204.34 110.444 211.575 125.18 214.506C139.916 217.437 155.19 215.933 169.071 210.183C182.952 204.434 194.816 194.697 203.163 182.204C211.51 169.712 215.966 155.025 215.966 140H280Z"/>
</mask>
<path d="M280 140C280 167.689 271.789 194.757 256.406 217.78C241.022 240.803 219.157 258.747 193.576 269.343C167.994 279.939 139.845 282.712 112.687 277.31C85.53 271.908 60.5844 258.574 41.0051 238.995C21.4257 219.416 8.09199 194.47 2.69006 167.313C-2.71187 140.155 0.060597 112.006 10.6569 86.4243C21.2531 60.8427 39.1973 38.9776 62.2202 23.5943C85.243 8.21086 112.311 -3.30193e-07 140 0V64.0342C124.975 64.0342 110.288 68.4896 97.7957 76.8368C85.3032 85.184 75.5665 97.0482 69.8168 110.929C64.0671 124.81 62.5628 140.084 65.4939 154.82C68.4251 169.556 75.6601 183.092 86.2841 193.716C96.9081 204.34 110.444 211.575 125.18 214.506C139.916 217.437 155.19 215.933 169.071 210.183C182.952 204.434 194.816 194.697 203.163 182.204C211.51 169.712 215.966 155.025 215.966 140H280Z" fill="white" stroke="black" stroke-width="20" mask="url(#path-1-inside-1_14144_22451)"/>
</svg>
