<svg width="280" height="280" viewBox="0 0 280 280" fill="none" xmlns="http://www.w3.org/2000/svg">
<mask id="path-1-inside-1_14144_22450" fill="white">
<path d="M280 140C280 217.32 217.32 280 140 280C62.6801 280 0 217.32 0 140C0 62.6801 62.6801 0 140 0C217.32 0 280 62.6801 280 140ZM64.0342 140C64.0342 181.955 98.0453 215.966 140 215.966C181.955 215.966 215.966 181.955 215.966 140C215.966 98.0453 181.955 64.0342 140 64.0342C98.0453 64.0342 64.0342 98.0453 64.0342 140Z"/>
</mask>
<path d="M280 140C280 217.32 217.32 280 140 280C62.6801 280 0 217.32 0 140C0 62.6801 62.6801 0 140 0C217.32 0 280 62.6801 280 140ZM64.0342 140C64.0342 181.955 98.0453 215.966 140 215.966C181.955 215.966 215.966 181.955 215.966 140C215.966 98.0453 181.955 64.0342 140 64.0342C98.0453 64.0342 64.0342 98.0453 64.0342 140Z" fill="white" stroke="black" stroke-width="20" mask="url(#path-1-inside-1_14144_22450)"/>
</svg>
