<svg width="280" height="280" viewBox="0 0 280 280" fill="none" xmlns="http://www.w3.org/2000/svg">
<rect x="5" y="5" width="270" height="270" fill="white" stroke="black" stroke-width="10"/>
<path d="M101.091 128.091V132.636H83V128.091H101.091ZM88.2727 119.727H93.6364V153C93.6364 154.515 93.8561 155.652 94.2955 156.409C94.75 157.152 95.3258 157.652 96.0227 157.909C96.7348 158.152 97.4848 158.273 98.2727 158.273C98.8636 158.273 99.3485 158.242 99.7273 158.182C100.106 158.106 100.409 158.045 100.636 158L101.727 162.818C101.364 162.955 100.856 163.091 100.205 163.227C99.553 163.379 98.7273 163.455 97.7273 163.455C96.2121 163.455 94.7273 163.129 93.2727 162.477C91.8333 161.826 90.6364 160.833 89.6818 159.5C88.7424 158.167 88.2727 156.485 88.2727 154.455V119.727ZM123.42 163.727C120.057 163.727 117.155 162.985 114.716 161.5C112.292 160 110.42 157.909 109.102 155.227C107.799 152.53 107.148 149.394 107.148 145.818C107.148 142.242 107.799 139.091 109.102 136.364C110.42 133.621 112.254 131.485 114.602 129.955C116.966 128.409 119.723 127.636 122.875 127.636C124.693 127.636 126.489 127.939 128.261 128.545C130.034 129.152 131.648 130.136 133.102 131.5C134.557 132.848 135.716 134.636 136.58 136.864C137.443 139.091 137.875 141.833 137.875 145.091V147.364H110.966V142.727H132.42C132.42 140.758 132.027 139 131.239 137.455C130.466 135.909 129.36 134.689 127.92 133.795C126.496 132.902 124.814 132.455 122.875 132.455C120.739 132.455 118.89 132.985 117.33 134.045C115.784 135.091 114.595 136.455 113.761 138.136C112.928 139.818 112.511 141.621 112.511 143.545V146.636C112.511 149.273 112.966 151.508 113.875 153.341C114.799 155.159 116.08 156.545 117.716 157.5C119.352 158.439 121.254 158.909 123.42 158.909C124.83 158.909 126.102 158.712 127.239 158.318C128.39 157.909 129.383 157.303 130.216 156.5C131.049 155.682 131.693 154.667 132.148 153.455L137.33 154.909C136.784 156.667 135.867 158.212 134.58 159.545C133.292 160.864 131.701 161.894 129.807 162.636C127.913 163.364 125.784 163.727 123.42 163.727ZM149.097 128.091L157.46 142.364L165.824 128.091H172.006L160.733 145.545L172.006 163H165.824L157.46 149.455L149.097 163H142.915L154.006 145.545L142.915 128.091H149.097ZM194.841 128.091V132.636H176.75V128.091H194.841ZM182.023 119.727H187.386V153C187.386 154.515 187.606 155.652 188.045 156.409C188.5 157.152 189.076 157.652 189.773 157.909C190.485 158.152 191.235 158.273 192.023 158.273C192.614 158.273 193.098 158.242 193.477 158.182C193.856 158.106 194.159 158.045 194.386 158L195.477 162.818C195.114 162.955 194.606 163.091 193.955 163.227C193.303 163.379 192.477 163.455 191.477 163.455C189.962 163.455 188.477 163.129 187.023 162.477C185.583 161.826 184.386 160.833 183.432 159.5C182.492 158.167 182.023 156.485 182.023 154.455V119.727Z" fill="black"/>
</svg>
