<svg width="301" height="296" viewBox="0 0 301 296" fill="none" xmlns="http://www.w3.org/2000/svg">
<path d="M165.523 98.7617L167.151 106.751L173.534 101.677L232.429 54.8594L196.551 120.99L192.663 128.157L200.813 128.373L276.024 130.366L206.031 157.964L198.445 160.954L204.551 166.358L260.883 216.229L189.527 192.38L181.794 189.795L182.997 197.859L194.094 272.272L154.763 208.136L150.5 201.186L146.237 208.136L106.905 272.272L118.003 197.859L119.206 189.795L111.473 192.38L40.1162 216.229L96.4492 166.358L102.555 160.954L94.9688 157.964L24.9746 130.366L100.187 128.373L108.337 128.157L104.449 120.99L68.5703 54.8594L127.466 101.677L133.849 106.751L135.477 98.7617L150.5 25.0391L165.523 98.7617Z" fill="white" stroke="black" stroke-width="10"/>
</svg>
