<svg width="280" height="207" viewBox="0 0 280 207" fill="none" xmlns="http://www.w3.org/2000/svg">
<path d="M140 5C177.699 5 211.632 16.3035 236.022 34.335C260.414 52.3674 275 76.8771 275 103.5C275 130.123 260.414 154.633 236.022 172.665C211.632 190.697 177.699 202 140 202C102.301 202 68.368 190.697 43.9775 172.665C19.5858 154.633 5 130.123 5 103.5C5 76.8771 19.5858 52.3674 43.9775 34.335C68.368 16.3035 102.301 5 140 5Z" fill="white" stroke="black" stroke-width="10"/>
<path d="M101.091 92.0909V96.6364H83V92.0909H101.091ZM88.2727 83.7273H93.6364V117C93.6364 118.515 93.8561 119.652 94.2955 120.409C94.75 121.152 95.3258 121.652 96.0227 121.909C96.7348 122.152 97.4848 122.273 98.2727 122.273C98.8636 122.273 99.3485 122.242 99.7273 122.182C100.106 122.106 100.409 122.045 100.636 122L101.727 126.818C101.364 126.955 100.856 127.091 100.205 127.227C99.553 127.379 98.7273 127.455 97.7273 127.455C96.2121 127.455 94.7273 127.129 93.2727 126.477C91.8333 125.826 90.6364 124.833 89.6818 123.5C88.7424 122.167 88.2727 120.485 88.2727 118.455V83.7273ZM123.42 127.727C120.057 127.727 117.155 126.985 114.716 125.5C112.292 124 110.42 121.909 109.102 119.227C107.799 116.53 107.148 113.394 107.148 109.818C107.148 106.242 107.799 103.091 109.102 100.364C110.42 97.6212 112.254 95.4848 114.602 93.9545C116.966 92.4091 119.723 91.6364 122.875 91.6364C124.693 91.6364 126.489 91.9394 128.261 92.5455C130.034 93.1515 131.648 94.1364 133.102 95.5C134.557 96.8485 135.716 98.6364 136.58 100.864C137.443 103.091 137.875 105.833 137.875 109.091V111.364H110.966V106.727H132.42C132.42 104.758 132.027 103 131.239 101.455C130.466 99.9091 129.36 98.6894 127.92 97.7955C126.496 96.9015 124.814 96.4545 122.875 96.4545C120.739 96.4545 118.89 96.9848 117.33 98.0455C115.784 99.0909 114.595 100.455 113.761 102.136C112.928 103.818 112.511 105.621 112.511 107.545V110.636C112.511 113.273 112.966 115.508 113.875 117.341C114.799 119.159 116.08 120.545 117.716 121.5C119.352 122.439 121.254 122.909 123.42 122.909C124.83 122.909 126.102 122.712 127.239 122.318C128.39 121.909 129.383 121.303 130.216 120.5C131.049 119.682 131.693 118.667 132.148 117.455L137.33 118.909C136.784 120.667 135.867 122.212 134.58 123.545C133.292 124.864 131.701 125.894 129.807 126.636C127.913 127.364 125.784 127.727 123.42 127.727ZM149.097 92.0909L157.46 106.364L165.824 92.0909H172.006L160.733 109.545L172.006 127H165.824L157.46 113.455L149.097 127H142.915L154.006 109.545L142.915 92.0909H149.097ZM194.841 92.0909V96.6364H176.75V92.0909H194.841ZM182.023 83.7273H187.386V117C187.386 118.515 187.606 119.652 188.045 120.409C188.5 121.152 189.076 121.652 189.773 121.909C190.485 122.152 191.235 122.273 192.023 122.273C192.614 122.273 193.098 122.242 193.477 122.182C193.856 122.106 194.159 122.045 194.386 122L195.477 126.818C195.114 126.955 194.606 127.091 193.955 127.227C193.303 127.379 192.477 127.455 191.477 127.455C189.962 127.455 188.477 127.129 187.023 126.477C185.583 125.826 184.386 124.833 183.432 123.5C182.492 122.167 182.023 120.485 182.023 118.455V83.7273Z" fill="black"/>
</svg>
